<?xml version="1.0" encoding="iso-8859-1"?>
<!-- Generator: Adobe Illustrator 19.0.0, SVG Export Plug-In . SVG Version: 6.00 Build 0)  -->
<svg xmlns="http://www.w3.org/2000/svg" xmlns:xlink="http://www.w3.org/1999/xlink" version="1.1" id="Layer_1" x="0px" y="0px" viewBox="0 0 512 512" style="enable-background:new 0 0 512 512;" xml:space="preserve" width="512px" height="512px">
<g>
	<g>
		<path d="M443.733,204.8h-57.353l-7.518-135.236C376.704,30.558,344.397,0,305.331,0h-98.662    c-39.066,0-71.373,30.558-73.532,69.564L125.619,204.8H68.267c-9.412,0-17.067,7.654-17.067,17.067v17.067    c0,9.412,7.654,17.067,17.067,17.067v93.867c0,14.114,11.486,25.6,25.6,25.6h8.533V384c0,4.71,3.814,8.533,8.533,8.533h25.6V486.4    c0,14.114,11.486,25.6,25.6,25.6s25.6-11.486,25.6-25.6v-93.867h136.533V486.4c0,14.114,11.486,25.6,25.6,25.6    c14.114,0,25.6-11.486,25.6-25.6v-93.867h25.6c4.719,0,8.533-3.823,8.533-8.533v-8.533h8.533c14.114,0,25.6-11.486,25.6-25.6V256    c9.412,0,17.067-7.654,17.067-17.067v-17.067C460.8,212.454,453.146,204.8,443.733,204.8z M167.219,71.467    c1.152-20.941,18.483-37.333,39.45-37.333h98.662c20.966,0,38.298,16.393,39.45,37.333c0.273,4.702-3.336,8.721-8.038,8.986    c-0.171,0.009-0.324,0.017-0.486,0.017c-4.497,0-8.26-3.516-8.508-8.064C327.091,60.51,317.244,51.2,305.331,51.2h-98.662    c-11.913,0-21.76,9.31-22.417,21.205c-0.256,4.702-4.224,8.243-8.994,8.047C170.556,80.188,166.946,76.169,167.219,71.467z     M68.267,238.933v-17.067h56.397l-0.947,17.067H76.8H68.267z M116.267,301.525c-0.947,0.879-1.843,1.801-2.714,2.765    c-0.811,0.887-1.553,1.818-2.278,2.765c-0.905,1.178-1.749,2.372-2.517,3.644c-0.828,1.34-1.579,2.714-2.253,4.13    c-0.358,0.768-0.725,1.528-1.041,2.321c-0.828,2.065-1.485,4.198-1.98,6.383c-0.128,0.563-0.213,1.135-0.316,1.707    c-0.461,2.475-0.768,4.992-0.768,7.561v25.6h-8.533c-4.71,0-8.533-3.831-8.533-8.533V256h37.444l-2.338,42.086    c-0.947,0.674-1.792,1.459-2.679,2.21C117.265,300.706,116.745,301.09,116.267,301.525z M392.533,366.933v8.533h-25.6H332.8H179.2    h-34.133h-25.6v-8.533V332.8c0-2.133,0.333-4.224,0.862-6.238c0.102-0.418,0.247-0.811,0.375-1.22    c0.563-1.792,1.28-3.541,2.227-5.163c0.077-0.137,0.145-0.282,0.23-0.418c2.304-3.797,5.598-7.031,9.66-9.267    c1.929-1.058,3.891-1.843,5.871-2.398c0.094-0.017,0.188-0.06,0.282-0.085c2.005-0.529,4.045-0.811,6.093-0.811h221.867    c2.048,0,4.087,0.282,6.093,0.811c0.094,0.026,0.188,0.068,0.273,0.085c1.988,0.555,3.951,1.34,5.879,2.398    c4.07,2.236,7.356,5.47,9.66,9.267c0.085,0.136,0.154,0.282,0.23,0.418c0.947,1.621,1.664,3.371,2.227,5.163    c0.128,0.41,0.273,0.802,0.375,1.212c0.529,2.022,0.862,4.113,0.862,6.246V366.933z M426.667,349.867    c0,4.702-3.823,8.533-8.533,8.533H409.6v-25.6c0-2.568-0.307-5.086-0.768-7.561c-0.102-0.572-0.188-1.143-0.316-1.707    c-0.495-2.185-1.152-4.318-1.98-6.383c-0.316-0.794-0.683-1.553-1.041-2.321c-0.674-1.417-1.425-2.79-2.253-4.13    c-0.768-1.271-1.613-2.466-2.517-3.644c-0.725-0.947-1.468-1.877-2.278-2.765c-0.87-0.964-1.766-1.886-2.714-2.765    c-0.478-0.435-0.998-0.819-1.493-1.229c-0.887-0.751-1.732-1.536-2.679-2.21L389.222,256h37.444V349.867z M443.733,238.933H435.2    h-46.916l-0.947-17.067h56.397V238.933z" fill="#D80027"/>
	</g>
</g>
<g>
</g>
<g>
</g>
<g>
</g>
<g>
</g>
<g>
</g>
<g>
</g>
<g>
</g>
<g>
</g>
<g>
</g>
<g>
</g>
<g>
</g>
<g>
</g>
<g>
</g>
<g>
</g>
<g>
</g>
</svg>
